<mxfile host="Electron" modified="2024-03-17T13:20:08.784Z" agent="Mozilla/5.0 (X11; Linux x86_64) AppleWebKit/537.36 (KHTML, like Gecko) draw.io/22.0.2 Chrome/114.0.5735.289 Electron/25.8.4 Safari/537.36" etag="NeKqA286pTNcbsMuFH8M" version="22.0.2" type="device">
  <diagram id="C5RBs43oDa-KdzZeNtuy" name="Page-1">
    <mxGraphModel dx="1426" dy="852" grid="1" gridSize="10" guides="1" tooltips="1" connect="1" arrows="1" fold="1" page="1" pageScale="1" pageWidth="827" pageHeight="1169" math="0" shadow="0">
      <root>
        <mxCell id="WIyWlLk6GJQsqaUBKTNV-0" />
        <mxCell id="WIyWlLk6GJQsqaUBKTNV-1" parent="WIyWlLk6GJQsqaUBKTNV-0" />
        <mxCell id="UaoHKooWhHkMl0hKJEV8-1" value="" style="swimlane;startSize=0;" vertex="1" parent="WIyWlLk6GJQsqaUBKTNV-1">
          <mxGeometry y="95" width="840" height="490" as="geometry" />
        </mxCell>
        <mxCell id="UaoHKooWhHkMl0hKJEV8-2" value="&amp;lt;&amp;lt;interface&amp;gt;&amp;gt;&lt;br&gt;AppFunction" style="swimlane;fontStyle=1;align=center;verticalAlign=top;childLayout=stackLayout;horizontal=1;startSize=40;horizontalStack=0;resizeParent=1;resizeParentMax=0;resizeLast=0;collapsible=1;marginBottom=0;whiteSpace=wrap;html=1;" vertex="1" parent="UaoHKooWhHkMl0hKJEV8-1">
          <mxGeometry x="24" y="95" width="360" height="126" as="geometry" />
        </mxCell>
        <mxCell id="UaoHKooWhHkMl0hKJEV8-4" value="" style="line;strokeWidth=1;fillColor=none;align=left;verticalAlign=middle;spacingTop=-1;spacingLeft=3;spacingRight=3;rotatable=0;labelPosition=right;points=[];portConstraint=eastwest;strokeColor=inherit;" vertex="1" parent="UaoHKooWhHkMl0hKJEV8-2">
          <mxGeometry y="40" width="360" height="8" as="geometry" />
        </mxCell>
        <mxCell id="UaoHKooWhHkMl0hKJEV8-5" value="+ calculate(double x, double eps): double" style="text;strokeColor=none;fillColor=none;align=left;verticalAlign=top;spacingLeft=4;spacingRight=4;overflow=hidden;rotatable=0;points=[[0,0.5],[1,0.5]];portConstraint=eastwest;whiteSpace=wrap;html=1;" vertex="1" parent="UaoHKooWhHkMl0hKJEV8-2">
          <mxGeometry y="48" width="360" height="26" as="geometry" />
        </mxCell>
        <mxCell id="UaoHKooWhHkMl0hKJEV8-8" value="+ calculate(double x, double eps, FunctionLogger logger): double" style="text;strokeColor=none;fillColor=none;align=left;verticalAlign=top;spacingLeft=4;spacingRight=4;overflow=hidden;rotatable=0;points=[[0,0.5],[1,0.5]];portConstraint=eastwest;whiteSpace=wrap;html=1;" vertex="1" parent="UaoHKooWhHkMl0hKJEV8-2">
          <mxGeometry y="74" width="360" height="26" as="geometry" />
        </mxCell>
        <mxCell id="UaoHKooWhHkMl0hKJEV8-7" value="+ validateDomain(double x, double eps): boolean" style="text;strokeColor=none;fillColor=none;align=left;verticalAlign=top;spacingLeft=4;spacingRight=4;overflow=hidden;rotatable=0;points=[[0,0.5],[1,0.5]];portConstraint=eastwest;whiteSpace=wrap;html=1;" vertex="1" parent="UaoHKooWhHkMl0hKJEV8-2">
          <mxGeometry y="100" width="360" height="26" as="geometry" />
        </mxCell>
        <mxCell id="UaoHKooWhHkMl0hKJEV8-19" value="&amp;lt;&amp;lt;interface&amp;gt;&amp;gt;&lt;br&gt;FunctionLogger" style="swimlane;fontStyle=1;align=center;verticalAlign=top;childLayout=stackLayout;horizontal=1;startSize=40;horizontalStack=0;resizeParent=1;resizeParentMax=0;resizeLast=0;collapsible=1;marginBottom=0;whiteSpace=wrap;html=1;" vertex="1" parent="UaoHKooWhHkMl0hKJEV8-1">
          <mxGeometry x="414" y="95" width="360" height="74" as="geometry" />
        </mxCell>
        <mxCell id="UaoHKooWhHkMl0hKJEV8-20" value="" style="line;strokeWidth=1;fillColor=none;align=left;verticalAlign=middle;spacingTop=-1;spacingLeft=3;spacingRight=3;rotatable=0;labelPosition=right;points=[];portConstraint=eastwest;strokeColor=inherit;" vertex="1" parent="UaoHKooWhHkMl0hKJEV8-19">
          <mxGeometry y="40" width="360" height="8" as="geometry" />
        </mxCell>
        <mxCell id="UaoHKooWhHkMl0hKJEV8-21" value="+ log(double x, double eps, double result): void" style="text;strokeColor=none;fillColor=none;align=left;verticalAlign=top;spacingLeft=4;spacingRight=4;overflow=hidden;rotatable=0;points=[[0,0.5],[1,0.5]];portConstraint=eastwest;whiteSpace=wrap;html=1;" vertex="1" parent="UaoHKooWhHkMl0hKJEV8-19">
          <mxGeometry y="48" width="360" height="26" as="geometry" />
        </mxCell>
        <mxCell id="UaoHKooWhHkMl0hKJEV8-24" value="CsvLogger" style="swimlane;fontStyle=1;align=center;verticalAlign=top;childLayout=stackLayout;horizontal=1;startSize=26;horizontalStack=0;resizeParent=1;resizeParentMax=0;resizeLast=0;collapsible=1;marginBottom=0;whiteSpace=wrap;html=1;" vertex="1" parent="UaoHKooWhHkMl0hKJEV8-1">
          <mxGeometry x="460" y="202" width="200" height="86" as="geometry" />
        </mxCell>
        <mxCell id="UaoHKooWhHkMl0hKJEV8-25" value="- writer: CSVWriter" style="text;strokeColor=none;fillColor=none;align=left;verticalAlign=top;spacingLeft=4;spacingRight=4;overflow=hidden;rotatable=0;points=[[0,0.5],[1,0.5]];portConstraint=eastwest;whiteSpace=wrap;html=1;" vertex="1" parent="UaoHKooWhHkMl0hKJEV8-24">
          <mxGeometry y="26" width="200" height="26" as="geometry" />
        </mxCell>
        <mxCell id="UaoHKooWhHkMl0hKJEV8-26" value="" style="line;strokeWidth=1;fillColor=none;align=left;verticalAlign=middle;spacingTop=-1;spacingLeft=3;spacingRight=3;rotatable=0;labelPosition=right;points=[];portConstraint=eastwest;strokeColor=inherit;" vertex="1" parent="UaoHKooWhHkMl0hKJEV8-24">
          <mxGeometry y="52" width="200" height="8" as="geometry" />
        </mxCell>
        <mxCell id="UaoHKooWhHkMl0hKJEV8-27" value="+ CsvLogger(String fileName)" style="text;strokeColor=none;fillColor=none;align=left;verticalAlign=top;spacingLeft=4;spacingRight=4;overflow=hidden;rotatable=0;points=[[0,0.5],[1,0.5]];portConstraint=eastwest;whiteSpace=wrap;html=1;" vertex="1" parent="UaoHKooWhHkMl0hKJEV8-24">
          <mxGeometry y="60" width="200" height="26" as="geometry" />
        </mxCell>
        <mxCell id="UaoHKooWhHkMl0hKJEV8-28" value="" style="endArrow=block;dashed=1;endFill=0;endSize=12;html=1;rounded=0;" edge="1" parent="UaoHKooWhHkMl0hKJEV8-1" source="UaoHKooWhHkMl0hKJEV8-24" target="UaoHKooWhHkMl0hKJEV8-19">
          <mxGeometry width="160" relative="1" as="geometry">
            <mxPoint x="320" y="290" as="sourcePoint" />
            <mxPoint x="480" y="290" as="targetPoint" />
          </mxGeometry>
        </mxCell>
        <mxCell id="UaoHKooWhHkMl0hKJEV8-29" value="&amp;lt;&amp;lt;abstract class&amp;gt;&amp;gt;&lt;br&gt;AbstractAppFunction" style="swimlane;fontStyle=1;align=center;verticalAlign=top;childLayout=stackLayout;horizontal=1;startSize=40;horizontalStack=0;resizeParent=1;resizeParentMax=0;resizeLast=0;collapsible=1;marginBottom=0;whiteSpace=wrap;html=1;" vertex="1" parent="UaoHKooWhHkMl0hKJEV8-1">
          <mxGeometry x="460" y="385" width="360" height="74" as="geometry" />
        </mxCell>
        <mxCell id="UaoHKooWhHkMl0hKJEV8-30" value="" style="line;strokeWidth=1;fillColor=none;align=left;verticalAlign=middle;spacingTop=-1;spacingLeft=3;spacingRight=3;rotatable=0;labelPosition=right;points=[];portConstraint=eastwest;strokeColor=inherit;" vertex="1" parent="UaoHKooWhHkMl0hKJEV8-29">
          <mxGeometry y="40" width="360" height="8" as="geometry" />
        </mxCell>
        <mxCell id="UaoHKooWhHkMl0hKJEV8-33" value="# checkX(double x, double eps)" style="text;strokeColor=none;fillColor=none;align=left;verticalAlign=top;spacingLeft=4;spacingRight=4;overflow=hidden;rotatable=0;points=[[0,0.5],[1,0.5]];portConstraint=eastwest;whiteSpace=wrap;html=1;" vertex="1" parent="UaoHKooWhHkMl0hKJEV8-29">
          <mxGeometry y="48" width="360" height="26" as="geometry" />
        </mxCell>
        <mxCell id="UaoHKooWhHkMl0hKJEV8-34" value="" style="endArrow=block;dashed=1;endFill=0;endSize=12;html=1;rounded=0;" edge="1" parent="UaoHKooWhHkMl0hKJEV8-1" source="UaoHKooWhHkMl0hKJEV8-29" target="UaoHKooWhHkMl0hKJEV8-2">
          <mxGeometry width="160" relative="1" as="geometry">
            <mxPoint x="320" y="290" as="sourcePoint" />
            <mxPoint x="480" y="290" as="targetPoint" />
          </mxGeometry>
        </mxCell>
        <mxCell id="UaoHKooWhHkMl0hKJEV8-35" value="core" style="shape=folder;fontStyle=1;spacingTop=10;tabWidth=40;tabHeight=14;tabPosition=left;html=1;whiteSpace=wrap;" vertex="1" parent="UaoHKooWhHkMl0hKJEV8-1">
          <mxGeometry x="24" y="15" width="70" height="50" as="geometry" />
        </mxCell>
        <mxCell id="UaoHKooWhHkMl0hKJEV8-36" value="" style="swimlane;startSize=0;" vertex="1" parent="WIyWlLk6GJQsqaUBKTNV-1">
          <mxGeometry y="640" width="880" height="180" as="geometry" />
        </mxCell>
        <mxCell id="UaoHKooWhHkMl0hKJEV8-37" value="trig" style="shape=folder;fontStyle=1;spacingTop=10;tabWidth=40;tabHeight=14;tabPosition=left;html=1;whiteSpace=wrap;" vertex="1" parent="UaoHKooWhHkMl0hKJEV8-36">
          <mxGeometry x="30" y="20" width="70" height="50" as="geometry" />
        </mxCell>
        <mxCell id="UaoHKooWhHkMl0hKJEV8-38" value="Cos" style="swimlane;fontStyle=1;align=center;verticalAlign=top;childLayout=stackLayout;horizontal=1;startSize=26;horizontalStack=0;resizeParent=1;resizeParentMax=0;resizeLast=0;collapsible=1;marginBottom=0;whiteSpace=wrap;html=1;" vertex="1" parent="UaoHKooWhHkMl0hKJEV8-36">
          <mxGeometry x="10" y="80" width="200" height="86" as="geometry" />
        </mxCell>
        <mxCell id="UaoHKooWhHkMl0hKJEV8-40" value="" style="line;strokeWidth=1;fillColor=none;align=left;verticalAlign=middle;spacingTop=-1;spacingLeft=3;spacingRight=3;rotatable=0;labelPosition=right;points=[];portConstraint=eastwest;strokeColor=inherit;" vertex="1" parent="UaoHKooWhHkMl0hKJEV8-38">
          <mxGeometry y="26" width="200" height="8" as="geometry" />
        </mxCell>
        <mxCell id="UaoHKooWhHkMl0hKJEV8-41" value="- getTerm(double x, int k): double" style="text;strokeColor=none;fillColor=none;align=left;verticalAlign=top;spacingLeft=4;spacingRight=4;overflow=hidden;rotatable=0;points=[[0,0.5],[1,0.5]];portConstraint=eastwest;whiteSpace=wrap;html=1;" vertex="1" parent="UaoHKooWhHkMl0hKJEV8-38">
          <mxGeometry y="34" width="200" height="26" as="geometry" />
        </mxCell>
        <mxCell id="UaoHKooWhHkMl0hKJEV8-42" value="- getFactorial(double num): double" style="text;strokeColor=none;fillColor=none;align=left;verticalAlign=top;spacingLeft=4;spacingRight=4;overflow=hidden;rotatable=0;points=[[0,0.5],[1,0.5]];portConstraint=eastwest;whiteSpace=wrap;html=1;" vertex="1" parent="UaoHKooWhHkMl0hKJEV8-38">
          <mxGeometry y="60" width="200" height="26" as="geometry" />
        </mxCell>
        <mxCell id="UaoHKooWhHkMl0hKJEV8-44" value="SIn" style="swimlane;fontStyle=1;align=center;verticalAlign=top;childLayout=stackLayout;horizontal=1;startSize=26;horizontalStack=0;resizeParent=1;resizeParentMax=0;resizeLast=0;collapsible=1;marginBottom=0;whiteSpace=wrap;html=1;" vertex="1" parent="UaoHKooWhHkMl0hKJEV8-36">
          <mxGeometry x="220" y="80" width="140" height="60" as="geometry" />
        </mxCell>
        <mxCell id="UaoHKooWhHkMl0hKJEV8-48" value="- cos: Cos" style="text;strokeColor=none;fillColor=none;align=left;verticalAlign=top;spacingLeft=4;spacingRight=4;overflow=hidden;rotatable=0;points=[[0,0.5],[1,0.5]];portConstraint=eastwest;whiteSpace=wrap;html=1;" vertex="1" parent="UaoHKooWhHkMl0hKJEV8-44">
          <mxGeometry y="26" width="140" height="26" as="geometry" />
        </mxCell>
        <mxCell id="UaoHKooWhHkMl0hKJEV8-45" value="" style="line;strokeWidth=1;fillColor=none;align=left;verticalAlign=middle;spacingTop=-1;spacingLeft=3;spacingRight=3;rotatable=0;labelPosition=right;points=[];portConstraint=eastwest;strokeColor=inherit;" vertex="1" parent="UaoHKooWhHkMl0hKJEV8-44">
          <mxGeometry y="52" width="140" height="8" as="geometry" />
        </mxCell>
        <mxCell id="UaoHKooWhHkMl0hKJEV8-50" value="Tan" style="swimlane;fontStyle=1;align=center;verticalAlign=top;childLayout=stackLayout;horizontal=1;startSize=26;horizontalStack=0;resizeParent=1;resizeParentMax=0;resizeLast=0;collapsible=1;marginBottom=0;whiteSpace=wrap;html=1;" vertex="1" parent="UaoHKooWhHkMl0hKJEV8-36">
          <mxGeometry x="380" y="54" width="110" height="86" as="geometry" />
        </mxCell>
        <mxCell id="UaoHKooWhHkMl0hKJEV8-51" value="- sin: Sin" style="text;strokeColor=none;fillColor=none;align=left;verticalAlign=top;spacingLeft=4;spacingRight=4;overflow=hidden;rotatable=0;points=[[0,0.5],[1,0.5]];portConstraint=eastwest;whiteSpace=wrap;html=1;" vertex="1" parent="UaoHKooWhHkMl0hKJEV8-50">
          <mxGeometry y="26" width="110" height="26" as="geometry" />
        </mxCell>
        <mxCell id="UaoHKooWhHkMl0hKJEV8-54" value="- cos: Cos" style="text;strokeColor=none;fillColor=none;align=left;verticalAlign=top;spacingLeft=4;spacingRight=4;overflow=hidden;rotatable=0;points=[[0,0.5],[1,0.5]];portConstraint=eastwest;whiteSpace=wrap;html=1;" vertex="1" parent="UaoHKooWhHkMl0hKJEV8-50">
          <mxGeometry y="52" width="110" height="26" as="geometry" />
        </mxCell>
        <mxCell id="UaoHKooWhHkMl0hKJEV8-52" value="" style="line;strokeWidth=1;fillColor=none;align=left;verticalAlign=middle;spacingTop=-1;spacingLeft=3;spacingRight=3;rotatable=0;labelPosition=right;points=[];portConstraint=eastwest;strokeColor=inherit;" vertex="1" parent="UaoHKooWhHkMl0hKJEV8-50">
          <mxGeometry y="78" width="110" height="8" as="geometry" />
        </mxCell>
        <mxCell id="UaoHKooWhHkMl0hKJEV8-60" value="Cot" style="swimlane;fontStyle=1;align=center;verticalAlign=top;childLayout=stackLayout;horizontal=1;startSize=26;horizontalStack=0;resizeParent=1;resizeParentMax=0;resizeLast=0;collapsible=1;marginBottom=0;whiteSpace=wrap;html=1;" vertex="1" parent="UaoHKooWhHkMl0hKJEV8-36">
          <mxGeometry x="500" y="54" width="110" height="86" as="geometry" />
        </mxCell>
        <mxCell id="UaoHKooWhHkMl0hKJEV8-61" value="- sin: Sin" style="text;strokeColor=none;fillColor=none;align=left;verticalAlign=top;spacingLeft=4;spacingRight=4;overflow=hidden;rotatable=0;points=[[0,0.5],[1,0.5]];portConstraint=eastwest;whiteSpace=wrap;html=1;" vertex="1" parent="UaoHKooWhHkMl0hKJEV8-60">
          <mxGeometry y="26" width="110" height="26" as="geometry" />
        </mxCell>
        <mxCell id="UaoHKooWhHkMl0hKJEV8-62" value="- cos: Cos" style="text;strokeColor=none;fillColor=none;align=left;verticalAlign=top;spacingLeft=4;spacingRight=4;overflow=hidden;rotatable=0;points=[[0,0.5],[1,0.5]];portConstraint=eastwest;whiteSpace=wrap;html=1;" vertex="1" parent="UaoHKooWhHkMl0hKJEV8-60">
          <mxGeometry y="52" width="110" height="26" as="geometry" />
        </mxCell>
        <mxCell id="UaoHKooWhHkMl0hKJEV8-63" value="" style="line;strokeWidth=1;fillColor=none;align=left;verticalAlign=middle;spacingTop=-1;spacingLeft=3;spacingRight=3;rotatable=0;labelPosition=right;points=[];portConstraint=eastwest;strokeColor=inherit;" vertex="1" parent="UaoHKooWhHkMl0hKJEV8-60">
          <mxGeometry y="78" width="110" height="8" as="geometry" />
        </mxCell>
        <mxCell id="UaoHKooWhHkMl0hKJEV8-66" value="Csc" style="swimlane;fontStyle=1;align=center;verticalAlign=top;childLayout=stackLayout;horizontal=1;startSize=26;horizontalStack=0;resizeParent=1;resizeParentMax=0;resizeLast=0;collapsible=1;marginBottom=0;whiteSpace=wrap;html=1;" vertex="1" parent="UaoHKooWhHkMl0hKJEV8-36">
          <mxGeometry x="620" y="54" width="110" height="60" as="geometry" />
        </mxCell>
        <mxCell id="UaoHKooWhHkMl0hKJEV8-67" value="- sin: Sin" style="text;strokeColor=none;fillColor=none;align=left;verticalAlign=top;spacingLeft=4;spacingRight=4;overflow=hidden;rotatable=0;points=[[0,0.5],[1,0.5]];portConstraint=eastwest;whiteSpace=wrap;html=1;" vertex="1" parent="UaoHKooWhHkMl0hKJEV8-66">
          <mxGeometry y="26" width="110" height="26" as="geometry" />
        </mxCell>
        <mxCell id="UaoHKooWhHkMl0hKJEV8-69" value="" style="line;strokeWidth=1;fillColor=none;align=left;verticalAlign=middle;spacingTop=-1;spacingLeft=3;spacingRight=3;rotatable=0;labelPosition=right;points=[];portConstraint=eastwest;strokeColor=inherit;" vertex="1" parent="UaoHKooWhHkMl0hKJEV8-66">
          <mxGeometry y="52" width="110" height="8" as="geometry" />
        </mxCell>
        <mxCell id="UaoHKooWhHkMl0hKJEV8-70" value="Sec" style="swimlane;fontStyle=1;align=center;verticalAlign=top;childLayout=stackLayout;horizontal=1;startSize=26;horizontalStack=0;resizeParent=1;resizeParentMax=0;resizeLast=0;collapsible=1;marginBottom=0;whiteSpace=wrap;html=1;" vertex="1" parent="UaoHKooWhHkMl0hKJEV8-36">
          <mxGeometry x="740" y="54" width="110" height="60" as="geometry" />
        </mxCell>
        <mxCell id="UaoHKooWhHkMl0hKJEV8-71" value="- sin: Sin" style="text;strokeColor=none;fillColor=none;align=left;verticalAlign=top;spacingLeft=4;spacingRight=4;overflow=hidden;rotatable=0;points=[[0,0.5],[1,0.5]];portConstraint=eastwest;whiteSpace=wrap;html=1;" vertex="1" parent="UaoHKooWhHkMl0hKJEV8-70">
          <mxGeometry y="26" width="110" height="26" as="geometry" />
        </mxCell>
        <mxCell id="UaoHKooWhHkMl0hKJEV8-72" value="" style="line;strokeWidth=1;fillColor=none;align=left;verticalAlign=middle;spacingTop=-1;spacingLeft=3;spacingRight=3;rotatable=0;labelPosition=right;points=[];portConstraint=eastwest;strokeColor=inherit;" vertex="1" parent="UaoHKooWhHkMl0hKJEV8-70">
          <mxGeometry y="52" width="110" height="8" as="geometry" />
        </mxCell>
        <mxCell id="UaoHKooWhHkMl0hKJEV8-43" value="" style="endArrow=block;dashed=1;endFill=0;endSize=12;html=1;rounded=0;" edge="1" parent="WIyWlLk6GJQsqaUBKTNV-1" source="UaoHKooWhHkMl0hKJEV8-38" target="UaoHKooWhHkMl0hKJEV8-2">
          <mxGeometry width="160" relative="1" as="geometry">
            <mxPoint x="310" y="560" as="sourcePoint" />
            <mxPoint x="470" y="560" as="targetPoint" />
          </mxGeometry>
        </mxCell>
        <mxCell id="UaoHKooWhHkMl0hKJEV8-49" value="" style="endArrow=block;dashed=1;endFill=0;endSize=12;html=1;rounded=0;" edge="1" parent="WIyWlLk6GJQsqaUBKTNV-1" source="UaoHKooWhHkMl0hKJEV8-44" target="UaoHKooWhHkMl0hKJEV8-2">
          <mxGeometry width="160" relative="1" as="geometry">
            <mxPoint x="214" y="730" as="sourcePoint" />
            <mxPoint x="214" y="326" as="targetPoint" />
          </mxGeometry>
        </mxCell>
        <mxCell id="UaoHKooWhHkMl0hKJEV8-55" value="Extends" style="endArrow=block;endSize=16;endFill=0;html=1;rounded=0;" edge="1" parent="WIyWlLk6GJQsqaUBKTNV-1" source="UaoHKooWhHkMl0hKJEV8-50" target="UaoHKooWhHkMl0hKJEV8-29">
          <mxGeometry width="160" relative="1" as="geometry">
            <mxPoint x="310" y="560" as="sourcePoint" />
            <mxPoint x="470" y="560" as="targetPoint" />
          </mxGeometry>
        </mxCell>
        <mxCell id="UaoHKooWhHkMl0hKJEV8-64" value="Extends" style="endArrow=block;endSize=16;endFill=0;html=1;rounded=0;" edge="1" parent="WIyWlLk6GJQsqaUBKTNV-1" source="UaoHKooWhHkMl0hKJEV8-60" target="UaoHKooWhHkMl0hKJEV8-29">
          <mxGeometry width="160" relative="1" as="geometry">
            <mxPoint x="473" y="704" as="sourcePoint" />
            <mxPoint x="579" y="544" as="targetPoint" />
          </mxGeometry>
        </mxCell>
        <mxCell id="UaoHKooWhHkMl0hKJEV8-73" value="Extends" style="endArrow=block;endSize=16;endFill=0;html=1;rounded=0;" edge="1" parent="WIyWlLk6GJQsqaUBKTNV-1" source="UaoHKooWhHkMl0hKJEV8-66" target="UaoHKooWhHkMl0hKJEV8-29">
          <mxGeometry width="160" relative="1" as="geometry">
            <mxPoint x="572" y="704" as="sourcePoint" />
            <mxPoint x="598" y="544" as="targetPoint" />
          </mxGeometry>
        </mxCell>
        <mxCell id="UaoHKooWhHkMl0hKJEV8-74" value="Extends" style="endArrow=block;endSize=16;endFill=0;html=1;rounded=0;" edge="1" parent="WIyWlLk6GJQsqaUBKTNV-1" source="UaoHKooWhHkMl0hKJEV8-70" target="UaoHKooWhHkMl0hKJEV8-29">
          <mxGeometry width="160" relative="1" as="geometry">
            <mxPoint x="582" y="714" as="sourcePoint" />
            <mxPoint x="608" y="554" as="targetPoint" />
          </mxGeometry>
        </mxCell>
        <mxCell id="UaoHKooWhHkMl0hKJEV8-75" value="" style="swimlane;startSize=0;" vertex="1" parent="WIyWlLk6GJQsqaUBKTNV-1">
          <mxGeometry x="900" y="540" width="530" height="280" as="geometry" />
        </mxCell>
        <mxCell id="UaoHKooWhHkMl0hKJEV8-76" value="log" style="shape=folder;fontStyle=1;spacingTop=10;tabWidth=40;tabHeight=14;tabPosition=left;html=1;whiteSpace=wrap;" vertex="1" parent="UaoHKooWhHkMl0hKJEV8-75">
          <mxGeometry x="30" y="20" width="70" height="50" as="geometry" />
        </mxCell>
        <mxCell id="UaoHKooWhHkMl0hKJEV8-77" value="&amp;lt;&amp;lt;abstract class&amp;gt;&amp;gt;&lt;br&gt;AbstractLogFunction" style="swimlane;fontStyle=1;align=center;verticalAlign=top;childLayout=stackLayout;horizontal=1;startSize=40;horizontalStack=0;resizeParent=1;resizeParentMax=0;resizeLast=0;collapsible=1;marginBottom=0;whiteSpace=wrap;html=1;" vertex="1" parent="UaoHKooWhHkMl0hKJEV8-75">
          <mxGeometry x="15" y="110" width="360" height="48" as="geometry" />
        </mxCell>
        <mxCell id="UaoHKooWhHkMl0hKJEV8-78" value="" style="line;strokeWidth=1;fillColor=none;align=left;verticalAlign=middle;spacingTop=-1;spacingLeft=3;spacingRight=3;rotatable=0;labelPosition=right;points=[];portConstraint=eastwest;strokeColor=inherit;" vertex="1" parent="UaoHKooWhHkMl0hKJEV8-77">
          <mxGeometry y="40" width="360" height="8" as="geometry" />
        </mxCell>
        <mxCell id="UaoHKooWhHkMl0hKJEV8-81" value="Ln" style="swimlane;fontStyle=1;align=center;verticalAlign=top;childLayout=stackLayout;horizontal=1;startSize=26;horizontalStack=0;resizeParent=1;resizeParentMax=0;resizeLast=0;collapsible=1;marginBottom=0;whiteSpace=wrap;html=1;" vertex="1" parent="UaoHKooWhHkMl0hKJEV8-75">
          <mxGeometry x="390" y="180" width="110" height="34" as="geometry" />
        </mxCell>
        <mxCell id="UaoHKooWhHkMl0hKJEV8-83" value="" style="line;strokeWidth=1;fillColor=none;align=left;verticalAlign=middle;spacingTop=-1;spacingLeft=3;spacingRight=3;rotatable=0;labelPosition=right;points=[];portConstraint=eastwest;strokeColor=inherit;" vertex="1" parent="UaoHKooWhHkMl0hKJEV8-81">
          <mxGeometry y="26" width="110" height="8" as="geometry" />
        </mxCell>
        <mxCell id="UaoHKooWhHkMl0hKJEV8-84" value="Extends" style="endArrow=block;endSize=16;endFill=0;html=1;rounded=0;" edge="1" parent="UaoHKooWhHkMl0hKJEV8-75" source="UaoHKooWhHkMl0hKJEV8-81" target="UaoHKooWhHkMl0hKJEV8-77">
          <mxGeometry width="160" relative="1" as="geometry">
            <mxPoint x="30" y="108" as="sourcePoint" />
            <mxPoint x="-126" y="103" as="targetPoint" />
          </mxGeometry>
        </mxCell>
        <mxCell id="UaoHKooWhHkMl0hKJEV8-85" value="Log10" style="swimlane;fontStyle=1;align=center;verticalAlign=top;childLayout=stackLayout;horizontal=1;startSize=26;horizontalStack=0;resizeParent=1;resizeParentMax=0;resizeLast=0;collapsible=1;marginBottom=0;whiteSpace=wrap;html=1;" vertex="1" parent="UaoHKooWhHkMl0hKJEV8-75">
          <mxGeometry x="10" y="188" width="110" height="86" as="geometry" />
        </mxCell>
        <mxCell id="UaoHKooWhHkMl0hKJEV8-87" value="- ln: Ln" style="text;strokeColor=none;fillColor=none;align=left;verticalAlign=top;spacingLeft=4;spacingRight=4;overflow=hidden;rotatable=0;points=[[0,0.5],[1,0.5]];portConstraint=eastwest;whiteSpace=wrap;html=1;" vertex="1" parent="UaoHKooWhHkMl0hKJEV8-85">
          <mxGeometry y="26" width="110" height="26" as="geometry" />
        </mxCell>
        <mxCell id="UaoHKooWhHkMl0hKJEV8-88" value="&lt;u&gt;- LN10: double&lt;/u&gt;" style="text;strokeColor=none;fillColor=none;align=left;verticalAlign=top;spacingLeft=4;spacingRight=4;overflow=hidden;rotatable=0;points=[[0,0.5],[1,0.5]];portConstraint=eastwest;whiteSpace=wrap;html=1;" vertex="1" parent="UaoHKooWhHkMl0hKJEV8-85">
          <mxGeometry y="52" width="110" height="26" as="geometry" />
        </mxCell>
        <mxCell id="UaoHKooWhHkMl0hKJEV8-86" value="" style="line;strokeWidth=1;fillColor=none;align=left;verticalAlign=middle;spacingTop=-1;spacingLeft=3;spacingRight=3;rotatable=0;labelPosition=right;points=[];portConstraint=eastwest;strokeColor=inherit;" vertex="1" parent="UaoHKooWhHkMl0hKJEV8-85">
          <mxGeometry y="78" width="110" height="8" as="geometry" />
        </mxCell>
        <mxCell id="UaoHKooWhHkMl0hKJEV8-89" value="Extends" style="endArrow=block;endSize=16;endFill=0;html=1;rounded=0;" edge="1" parent="UaoHKooWhHkMl0hKJEV8-75" source="UaoHKooWhHkMl0hKJEV8-85" target="UaoHKooWhHkMl0hKJEV8-77">
          <mxGeometry width="160" relative="1" as="geometry">
            <mxPoint x="106" y="198" as="sourcePoint" />
            <mxPoint x="180" y="138" as="targetPoint" />
          </mxGeometry>
        </mxCell>
        <mxCell id="UaoHKooWhHkMl0hKJEV8-90" value="Log3" style="swimlane;fontStyle=1;align=center;verticalAlign=top;childLayout=stackLayout;horizontal=1;startSize=26;horizontalStack=0;resizeParent=1;resizeParentMax=0;resizeLast=0;collapsible=1;marginBottom=0;whiteSpace=wrap;html=1;" vertex="1" parent="UaoHKooWhHkMl0hKJEV8-75">
          <mxGeometry x="140" y="188" width="110" height="86" as="geometry" />
        </mxCell>
        <mxCell id="UaoHKooWhHkMl0hKJEV8-91" value="- ln: Ln" style="text;strokeColor=none;fillColor=none;align=left;verticalAlign=top;spacingLeft=4;spacingRight=4;overflow=hidden;rotatable=0;points=[[0,0.5],[1,0.5]];portConstraint=eastwest;whiteSpace=wrap;html=1;" vertex="1" parent="UaoHKooWhHkMl0hKJEV8-90">
          <mxGeometry y="26" width="110" height="26" as="geometry" />
        </mxCell>
        <mxCell id="UaoHKooWhHkMl0hKJEV8-92" value="&lt;u&gt;- LN3: double&lt;/u&gt;" style="text;strokeColor=none;fillColor=none;align=left;verticalAlign=top;spacingLeft=4;spacingRight=4;overflow=hidden;rotatable=0;points=[[0,0.5],[1,0.5]];portConstraint=eastwest;whiteSpace=wrap;html=1;" vertex="1" parent="UaoHKooWhHkMl0hKJEV8-90">
          <mxGeometry y="52" width="110" height="26" as="geometry" />
        </mxCell>
        <mxCell id="UaoHKooWhHkMl0hKJEV8-93" value="" style="line;strokeWidth=1;fillColor=none;align=left;verticalAlign=middle;spacingTop=-1;spacingLeft=3;spacingRight=3;rotatable=0;labelPosition=right;points=[];portConstraint=eastwest;strokeColor=inherit;" vertex="1" parent="UaoHKooWhHkMl0hKJEV8-90">
          <mxGeometry y="78" width="110" height="8" as="geometry" />
        </mxCell>
        <mxCell id="UaoHKooWhHkMl0hKJEV8-94" value="Extends" style="endArrow=block;endSize=16;endFill=0;html=1;rounded=0;" edge="1" parent="UaoHKooWhHkMl0hKJEV8-75" source="UaoHKooWhHkMl0hKJEV8-90" target="UaoHKooWhHkMl0hKJEV8-77">
          <mxGeometry width="160" relative="1" as="geometry">
            <mxPoint x="236" y="198" as="sourcePoint" />
            <mxPoint x="333" y="128" as="targetPoint" />
          </mxGeometry>
        </mxCell>
        <mxCell id="UaoHKooWhHkMl0hKJEV8-95" value="Log5" style="swimlane;fontStyle=1;align=center;verticalAlign=top;childLayout=stackLayout;horizontal=1;startSize=26;horizontalStack=0;resizeParent=1;resizeParentMax=0;resizeLast=0;collapsible=1;marginBottom=0;whiteSpace=wrap;html=1;" vertex="1" parent="UaoHKooWhHkMl0hKJEV8-75">
          <mxGeometry x="260" y="188" width="110" height="86" as="geometry" />
        </mxCell>
        <mxCell id="UaoHKooWhHkMl0hKJEV8-96" value="- ln: Ln" style="text;strokeColor=none;fillColor=none;align=left;verticalAlign=top;spacingLeft=4;spacingRight=4;overflow=hidden;rotatable=0;points=[[0,0.5],[1,0.5]];portConstraint=eastwest;whiteSpace=wrap;html=1;" vertex="1" parent="UaoHKooWhHkMl0hKJEV8-95">
          <mxGeometry y="26" width="110" height="26" as="geometry" />
        </mxCell>
        <mxCell id="UaoHKooWhHkMl0hKJEV8-97" value="&lt;u&gt;- LN5: double&lt;/u&gt;" style="text;strokeColor=none;fillColor=none;align=left;verticalAlign=top;spacingLeft=4;spacingRight=4;overflow=hidden;rotatable=0;points=[[0,0.5],[1,0.5]];portConstraint=eastwest;whiteSpace=wrap;html=1;" vertex="1" parent="UaoHKooWhHkMl0hKJEV8-95">
          <mxGeometry y="52" width="110" height="26" as="geometry" />
        </mxCell>
        <mxCell id="UaoHKooWhHkMl0hKJEV8-98" value="" style="line;strokeWidth=1;fillColor=none;align=left;verticalAlign=middle;spacingTop=-1;spacingLeft=3;spacingRight=3;rotatable=0;labelPosition=right;points=[];portConstraint=eastwest;strokeColor=inherit;" vertex="1" parent="UaoHKooWhHkMl0hKJEV8-95">
          <mxGeometry y="78" width="110" height="8" as="geometry" />
        </mxCell>
        <mxCell id="UaoHKooWhHkMl0hKJEV8-99" value="Extends" style="endArrow=block;endSize=16;endFill=0;html=1;rounded=0;" edge="1" parent="UaoHKooWhHkMl0hKJEV8-75" source="UaoHKooWhHkMl0hKJEV8-95" target="UaoHKooWhHkMl0hKJEV8-77">
          <mxGeometry width="160" relative="1" as="geometry">
            <mxPoint x="356" y="198" as="sourcePoint" />
            <mxPoint x="453" y="128" as="targetPoint" />
          </mxGeometry>
        </mxCell>
        <mxCell id="UaoHKooWhHkMl0hKJEV8-80" value="Extends" style="endArrow=block;endSize=16;endFill=0;html=1;rounded=0;" edge="1" parent="WIyWlLk6GJQsqaUBKTNV-1" source="UaoHKooWhHkMl0hKJEV8-77" target="UaoHKooWhHkMl0hKJEV8-29">
          <mxGeometry width="160" relative="1" as="geometry">
            <mxPoint x="778" y="704" as="sourcePoint" />
            <mxPoint x="637" y="544" as="targetPoint" />
          </mxGeometry>
        </mxCell>
        <mxCell id="UaoHKooWhHkMl0hKJEV8-100" value="" style="swimlane;startSize=0;" vertex="1" parent="WIyWlLk6GJQsqaUBKTNV-1">
          <mxGeometry x="860" y="95" width="670" height="439" as="geometry" />
        </mxCell>
        <mxCell id="UaoHKooWhHkMl0hKJEV8-106" value="app" style="shape=folder;fontStyle=1;spacingTop=10;tabWidth=40;tabHeight=14;tabPosition=left;html=1;whiteSpace=wrap;" vertex="1" parent="UaoHKooWhHkMl0hKJEV8-100">
          <mxGeometry x="20" y="15" width="70" height="50" as="geometry" />
        </mxCell>
        <mxCell id="UaoHKooWhHkMl0hKJEV8-107" value="LogExpression" style="swimlane;fontStyle=1;align=center;verticalAlign=top;childLayout=stackLayout;horizontal=1;startSize=26;horizontalStack=0;resizeParent=1;resizeParentMax=0;resizeLast=0;collapsible=1;marginBottom=0;whiteSpace=wrap;html=1;" vertex="1" parent="UaoHKooWhHkMl0hKJEV8-100">
          <mxGeometry x="10" y="75" width="310" height="164" as="geometry" />
        </mxCell>
        <mxCell id="UaoHKooWhHkMl0hKJEV8-108" value="- log3: Log3" style="text;strokeColor=none;fillColor=none;align=left;verticalAlign=top;spacingLeft=4;spacingRight=4;overflow=hidden;rotatable=0;points=[[0,0.5],[1,0.5]];portConstraint=eastwest;whiteSpace=wrap;html=1;" vertex="1" parent="UaoHKooWhHkMl0hKJEV8-107">
          <mxGeometry y="26" width="310" height="26" as="geometry" />
        </mxCell>
        <mxCell id="UaoHKooWhHkMl0hKJEV8-111" value="- log5: Log5" style="text;strokeColor=none;fillColor=none;align=left;verticalAlign=top;spacingLeft=4;spacingRight=4;overflow=hidden;rotatable=0;points=[[0,0.5],[1,0.5]];portConstraint=eastwest;whiteSpace=wrap;html=1;" vertex="1" parent="UaoHKooWhHkMl0hKJEV8-107">
          <mxGeometry y="52" width="310" height="26" as="geometry" />
        </mxCell>
        <mxCell id="UaoHKooWhHkMl0hKJEV8-112" value="- log10: Log10" style="text;strokeColor=none;fillColor=none;align=left;verticalAlign=top;spacingLeft=4;spacingRight=4;overflow=hidden;rotatable=0;points=[[0,0.5],[1,0.5]];portConstraint=eastwest;whiteSpace=wrap;html=1;" vertex="1" parent="UaoHKooWhHkMl0hKJEV8-107">
          <mxGeometry y="78" width="310" height="26" as="geometry" />
        </mxCell>
        <mxCell id="UaoHKooWhHkMl0hKJEV8-109" value="" style="line;strokeWidth=1;fillColor=none;align=left;verticalAlign=middle;spacingTop=-1;spacingLeft=3;spacingRight=3;rotatable=0;labelPosition=right;points=[];portConstraint=eastwest;strokeColor=inherit;" vertex="1" parent="UaoHKooWhHkMl0hKJEV8-107">
          <mxGeometry y="104" width="310" height="8" as="geometry" />
        </mxCell>
        <mxCell id="UaoHKooWhHkMl0hKJEV8-110" value="+ LogExpression()" style="text;strokeColor=none;fillColor=none;align=left;verticalAlign=top;spacingLeft=4;spacingRight=4;overflow=hidden;rotatable=0;points=[[0,0.5],[1,0.5]];portConstraint=eastwest;whiteSpace=wrap;html=1;" vertex="1" parent="UaoHKooWhHkMl0hKJEV8-107">
          <mxGeometry y="112" width="310" height="26" as="geometry" />
        </mxCell>
        <mxCell id="UaoHKooWhHkMl0hKJEV8-113" value="+ LogExpression(Log3 log3, Log5 log5, Log10 log10)" style="text;strokeColor=none;fillColor=none;align=left;verticalAlign=top;spacingLeft=4;spacingRight=4;overflow=hidden;rotatable=0;points=[[0,0.5],[1,0.5]];portConstraint=eastwest;whiteSpace=wrap;html=1;" vertex="1" parent="UaoHKooWhHkMl0hKJEV8-107">
          <mxGeometry y="138" width="310" height="26" as="geometry" />
        </mxCell>
        <mxCell id="UaoHKooWhHkMl0hKJEV8-115" value="TrigExpression" style="swimlane;fontStyle=1;align=center;verticalAlign=top;childLayout=stackLayout;horizontal=1;startSize=26;horizontalStack=0;resizeParent=1;resizeParentMax=0;resizeLast=0;collapsible=1;marginBottom=0;whiteSpace=wrap;html=1;" vertex="1" parent="UaoHKooWhHkMl0hKJEV8-100">
          <mxGeometry x="340" y="15" width="310" height="250" as="geometry" />
        </mxCell>
        <mxCell id="UaoHKooWhHkMl0hKJEV8-116" value="- sin: Sin" style="text;strokeColor=none;fillColor=none;align=left;verticalAlign=top;spacingLeft=4;spacingRight=4;overflow=hidden;rotatable=0;points=[[0,0.5],[1,0.5]];portConstraint=eastwest;whiteSpace=wrap;html=1;" vertex="1" parent="UaoHKooWhHkMl0hKJEV8-115">
          <mxGeometry y="26" width="310" height="26" as="geometry" />
        </mxCell>
        <mxCell id="UaoHKooWhHkMl0hKJEV8-117" value="- cos: Cos" style="text;strokeColor=none;fillColor=none;align=left;verticalAlign=top;spacingLeft=4;spacingRight=4;overflow=hidden;rotatable=0;points=[[0,0.5],[1,0.5]];portConstraint=eastwest;whiteSpace=wrap;html=1;" vertex="1" parent="UaoHKooWhHkMl0hKJEV8-115">
          <mxGeometry y="52" width="310" height="26" as="geometry" />
        </mxCell>
        <mxCell id="UaoHKooWhHkMl0hKJEV8-118" value="- tan: Tan" style="text;strokeColor=none;fillColor=none;align=left;verticalAlign=top;spacingLeft=4;spacingRight=4;overflow=hidden;rotatable=0;points=[[0,0.5],[1,0.5]];portConstraint=eastwest;whiteSpace=wrap;html=1;" vertex="1" parent="UaoHKooWhHkMl0hKJEV8-115">
          <mxGeometry y="78" width="310" height="26" as="geometry" />
        </mxCell>
        <mxCell id="UaoHKooWhHkMl0hKJEV8-122" value="- cot: Cot" style="text;strokeColor=none;fillColor=none;align=left;verticalAlign=top;spacingLeft=4;spacingRight=4;overflow=hidden;rotatable=0;points=[[0,0.5],[1,0.5]];portConstraint=eastwest;whiteSpace=wrap;html=1;" vertex="1" parent="UaoHKooWhHkMl0hKJEV8-115">
          <mxGeometry y="104" width="310" height="26" as="geometry" />
        </mxCell>
        <mxCell id="UaoHKooWhHkMl0hKJEV8-123" value="- csc: Csc" style="text;strokeColor=none;fillColor=none;align=left;verticalAlign=top;spacingLeft=4;spacingRight=4;overflow=hidden;rotatable=0;points=[[0,0.5],[1,0.5]];portConstraint=eastwest;whiteSpace=wrap;html=1;" vertex="1" parent="UaoHKooWhHkMl0hKJEV8-115">
          <mxGeometry y="130" width="310" height="26" as="geometry" />
        </mxCell>
        <mxCell id="UaoHKooWhHkMl0hKJEV8-124" value="- sec: Sec" style="text;strokeColor=none;fillColor=none;align=left;verticalAlign=top;spacingLeft=4;spacingRight=4;overflow=hidden;rotatable=0;points=[[0,0.5],[1,0.5]];portConstraint=eastwest;whiteSpace=wrap;html=1;" vertex="1" parent="UaoHKooWhHkMl0hKJEV8-115">
          <mxGeometry y="156" width="310" height="26" as="geometry" />
        </mxCell>
        <mxCell id="UaoHKooWhHkMl0hKJEV8-119" value="" style="line;strokeWidth=1;fillColor=none;align=left;verticalAlign=middle;spacingTop=-1;spacingLeft=3;spacingRight=3;rotatable=0;labelPosition=right;points=[];portConstraint=eastwest;strokeColor=inherit;" vertex="1" parent="UaoHKooWhHkMl0hKJEV8-115">
          <mxGeometry y="182" width="310" height="8" as="geometry" />
        </mxCell>
        <mxCell id="UaoHKooWhHkMl0hKJEV8-120" value="+ TrigExpression()" style="text;strokeColor=none;fillColor=none;align=left;verticalAlign=top;spacingLeft=4;spacingRight=4;overflow=hidden;rotatable=0;points=[[0,0.5],[1,0.5]];portConstraint=eastwest;whiteSpace=wrap;html=1;" vertex="1" parent="UaoHKooWhHkMl0hKJEV8-115">
          <mxGeometry y="190" width="310" height="26" as="geometry" />
        </mxCell>
        <mxCell id="UaoHKooWhHkMl0hKJEV8-121" value="+ TrigExpression(Sin sin, Cos cos, Tan tan, Cot cot, Csc csc, Sec sec)" style="text;strokeColor=none;fillColor=none;align=left;verticalAlign=top;spacingLeft=4;spacingRight=4;overflow=hidden;rotatable=0;points=[[0,0.5],[1,0.5]];portConstraint=eastwest;whiteSpace=wrap;html=1;" vertex="1" parent="UaoHKooWhHkMl0hKJEV8-115">
          <mxGeometry y="216" width="310" height="34" as="geometry" />
        </mxCell>
        <mxCell id="UaoHKooWhHkMl0hKJEV8-126" value="AppExpression" style="swimlane;fontStyle=1;align=center;verticalAlign=top;childLayout=stackLayout;horizontal=1;startSize=26;horizontalStack=0;resizeParent=1;resizeParentMax=0;resizeLast=0;collapsible=1;marginBottom=0;whiteSpace=wrap;html=1;" vertex="1" parent="UaoHKooWhHkMl0hKJEV8-100">
          <mxGeometry x="180" y="285" width="330" height="138" as="geometry" />
        </mxCell>
        <mxCell id="UaoHKooWhHkMl0hKJEV8-127" value="- log: LogExpression" style="text;strokeColor=none;fillColor=none;align=left;verticalAlign=top;spacingLeft=4;spacingRight=4;overflow=hidden;rotatable=0;points=[[0,0.5],[1,0.5]];portConstraint=eastwest;whiteSpace=wrap;html=1;" vertex="1" parent="UaoHKooWhHkMl0hKJEV8-126">
          <mxGeometry y="26" width="330" height="26" as="geometry" />
        </mxCell>
        <mxCell id="UaoHKooWhHkMl0hKJEV8-128" value="- trig: TrigExpression" style="text;strokeColor=none;fillColor=none;align=left;verticalAlign=top;spacingLeft=4;spacingRight=4;overflow=hidden;rotatable=0;points=[[0,0.5],[1,0.5]];portConstraint=eastwest;whiteSpace=wrap;html=1;" vertex="1" parent="UaoHKooWhHkMl0hKJEV8-126">
          <mxGeometry y="52" width="330" height="26" as="geometry" />
        </mxCell>
        <mxCell id="UaoHKooWhHkMl0hKJEV8-130" value="" style="line;strokeWidth=1;fillColor=none;align=left;verticalAlign=middle;spacingTop=-1;spacingLeft=3;spacingRight=3;rotatable=0;labelPosition=right;points=[];portConstraint=eastwest;strokeColor=inherit;" vertex="1" parent="UaoHKooWhHkMl0hKJEV8-126">
          <mxGeometry y="78" width="330" height="8" as="geometry" />
        </mxCell>
        <mxCell id="UaoHKooWhHkMl0hKJEV8-131" value="+ AppExpression()" style="text;strokeColor=none;fillColor=none;align=left;verticalAlign=top;spacingLeft=4;spacingRight=4;overflow=hidden;rotatable=0;points=[[0,0.5],[1,0.5]];portConstraint=eastwest;whiteSpace=wrap;html=1;" vertex="1" parent="UaoHKooWhHkMl0hKJEV8-126">
          <mxGeometry y="86" width="330" height="26" as="geometry" />
        </mxCell>
        <mxCell id="UaoHKooWhHkMl0hKJEV8-132" value="+ AppExpression(LogExpression log, TrigExpression trig)" style="text;strokeColor=none;fillColor=none;align=left;verticalAlign=top;spacingLeft=4;spacingRight=4;overflow=hidden;rotatable=0;points=[[0,0.5],[1,0.5]];portConstraint=eastwest;whiteSpace=wrap;html=1;" vertex="1" parent="UaoHKooWhHkMl0hKJEV8-126">
          <mxGeometry y="112" width="330" height="26" as="geometry" />
        </mxCell>
        <mxCell id="UaoHKooWhHkMl0hKJEV8-114" value="Extends" style="endArrow=block;endSize=16;endFill=0;html=1;rounded=0;" edge="1" parent="WIyWlLk6GJQsqaUBKTNV-1" source="UaoHKooWhHkMl0hKJEV8-107" target="UaoHKooWhHkMl0hKJEV8-29">
          <mxGeometry width="160" relative="1" as="geometry">
            <mxPoint x="1020" y="543" as="sourcePoint" />
            <mxPoint x="784" y="523" as="targetPoint" />
          </mxGeometry>
        </mxCell>
        <mxCell id="UaoHKooWhHkMl0hKJEV8-125" value="Extends" style="endArrow=block;endSize=16;endFill=0;html=1;rounded=0;" edge="1" parent="WIyWlLk6GJQsqaUBKTNV-1" source="UaoHKooWhHkMl0hKJEV8-115" target="UaoHKooWhHkMl0hKJEV8-29">
          <mxGeometry width="160" relative="1" as="geometry">
            <mxPoint x="891" y="344" as="sourcePoint" />
            <mxPoint x="669" y="470" as="targetPoint" />
          </mxGeometry>
        </mxCell>
        <mxCell id="UaoHKooWhHkMl0hKJEV8-140" value="Extends" style="endArrow=block;endSize=16;endFill=0;html=1;rounded=0;" edge="1" parent="WIyWlLk6GJQsqaUBKTNV-1" source="UaoHKooWhHkMl0hKJEV8-126" target="UaoHKooWhHkMl0hKJEV8-29">
          <mxGeometry width="160" relative="1" as="geometry">
            <mxPoint x="1210" y="306" as="sourcePoint" />
            <mxPoint x="744" y="490" as="targetPoint" />
          </mxGeometry>
        </mxCell>
      </root>
    </mxGraphModel>
  </diagram>
</mxfile>
